<svg xmlns="http://www.w3.org/2000/svg" viewBox="0 0 64 919" width="64" height="919" fill="none" preserveAspectRatio="none">
  <defs>
    <linearGradient id="metal" x1="0" y1="0" x2="0.7" y2="1">
      <stop offset="0%"  stop-color="#EEF3F8"/>
      <stop offset="28%" stop-color="#A9B6C4"/>
      <stop offset="52%" stop-color="#5A6D82"/>
      <stop offset="74%" stop-color="#C6CED8"/>
      <stop offset="100%" stop-color="#6C7C90"/>
    </linearGradient>
    <linearGradient id="steelDark" x1="0" y1="0" x2="0.6" y2="1">
      <stop offset="0%"  stop-color="#20374F"/>
      <stop offset="45%" stop-color="#102040"/>
      <stop offset="100%" stop-color="#0A1A2C"/>
    </linearGradient>
    <linearGradient id="gold" x1="0" y1="0" x2="0.5" y2="1">
      <stop offset="0%"  stop-color="#F2DFA0"/>
      <stop offset="35%" stop-color="#C9A227"/>
      <stop offset="70%" stop-color="#8A6E15"/>
      <stop offset="100%" stop-color="#E4CE84"/>
    </linearGradient>
  </defs>
  <ellipse cx="32.0" cy="48.0" rx="19.2" ry="40.3" fill="none" stroke="url(#gold)" stroke-width="9.9"/><ellipse cx="32.0" cy="48.0" rx="19.2" ry="40.3" fill="none" stroke="#0A1A2C" stroke-width="2.2" opacity="0.5"/><ellipse cx="32.0" cy="111.4" rx="28.2" ry="28.8" fill="none" stroke="url(#gold)" stroke-width="9.9"/><ellipse cx="32.0" cy="111.4" rx="28.2" ry="28.8" fill="none" stroke="#0A1A2C" stroke-width="2.2" opacity="0.5"/><ellipse cx="32.0" cy="174.7" rx="19.2" ry="40.3" fill="none" stroke="url(#gold)" stroke-width="9.9"/><ellipse cx="32.0" cy="174.7" rx="19.2" ry="40.3" fill="none" stroke="#0A1A2C" stroke-width="2.2" opacity="0.5"/><ellipse cx="32.0" cy="238.1" rx="28.2" ry="28.8" fill="none" stroke="url(#gold)" stroke-width="9.9"/><ellipse cx="32.0" cy="238.1" rx="28.2" ry="28.8" fill="none" stroke="#0A1A2C" stroke-width="2.2" opacity="0.5"/><ellipse cx="32.0" cy="301.4" rx="19.2" ry="40.3" fill="none" stroke="url(#gold)" stroke-width="9.9"/><ellipse cx="32.0" cy="301.4" rx="19.2" ry="40.3" fill="none" stroke="#0A1A2C" stroke-width="2.2" opacity="0.5"/><ellipse cx="32.0" cy="364.8" rx="28.2" ry="28.8" fill="none" stroke="url(#gold)" stroke-width="9.9"/><ellipse cx="32.0" cy="364.8" rx="28.2" ry="28.8" fill="none" stroke="#0A1A2C" stroke-width="2.2" opacity="0.5"/><ellipse cx="32.0" cy="428.2" rx="19.2" ry="40.3" fill="none" stroke="url(#gold)" stroke-width="9.9"/><ellipse cx="32.0" cy="428.2" rx="19.2" ry="40.3" fill="none" stroke="#0A1A2C" stroke-width="2.2" opacity="0.5"/><ellipse cx="32.0" cy="491.5" rx="28.2" ry="28.8" fill="none" stroke="url(#gold)" stroke-width="9.9"/><ellipse cx="32.0" cy="491.5" rx="28.2" ry="28.8" fill="none" stroke="#0A1A2C" stroke-width="2.2" opacity="0.5"/><ellipse cx="32.0" cy="554.9" rx="19.2" ry="40.3" fill="none" stroke="url(#gold)" stroke-width="9.9"/><ellipse cx="32.0" cy="554.9" rx="19.2" ry="40.3" fill="none" stroke="#0A1A2C" stroke-width="2.2" opacity="0.5"/><ellipse cx="32.0" cy="618.2" rx="28.2" ry="28.8" fill="none" stroke="url(#gold)" stroke-width="9.9"/><ellipse cx="32.0" cy="618.2" rx="28.2" ry="28.8" fill="none" stroke="#0A1A2C" stroke-width="2.2" opacity="0.5"/><ellipse cx="32.0" cy="681.6" rx="19.2" ry="40.3" fill="none" stroke="url(#gold)" stroke-width="9.9"/><ellipse cx="32.0" cy="681.6" rx="19.2" ry="40.3" fill="none" stroke="#0A1A2C" stroke-width="2.2" opacity="0.5"/><ellipse cx="32.0" cy="745.0" rx="28.2" ry="28.8" fill="none" stroke="url(#gold)" stroke-width="9.9"/><ellipse cx="32.0" cy="745.0" rx="28.2" ry="28.8" fill="none" stroke="#0A1A2C" stroke-width="2.2" opacity="0.5"/><ellipse cx="32.0" cy="808.3" rx="19.2" ry="40.3" fill="none" stroke="url(#gold)" stroke-width="9.9"/><ellipse cx="32.0" cy="808.3" rx="19.2" ry="40.3" fill="none" stroke="#0A1A2C" stroke-width="2.2" opacity="0.5"/><ellipse cx="32.0" cy="871.7" rx="28.2" ry="28.8" fill="none" stroke="url(#gold)" stroke-width="9.9"/><ellipse cx="32.0" cy="871.7" rx="28.2" ry="28.8" fill="none" stroke="#0A1A2C" stroke-width="2.2" opacity="0.5"/>
</svg>